<?xml version="1.0" encoding="UTF-8"?> <svg xmlns="http://www.w3.org/2000/svg" xmlns:xlink="http://www.w3.org/1999/xlink" width="365" height="250" viewBox="0 0 365 250"><defs><linearGradient id="linear-gradient" y1="0.5" x2="1" y2="0.5" gradientUnits="objectBoundingBox"><stop offset="0" stop-color="#699dd1"></stop><stop offset="1" stop-color="#173d7a"></stop></linearGradient><linearGradient id="linear-gradient-2" y1="0.5" x2="1" y2="0.5" gradientUnits="objectBoundingBox"><stop offset="0" stop-color="#e9f6ff"></stop><stop offset="1" stop-color="#d4ecff"></stop></linearGradient><linearGradient id="linear-gradient-3" x1="0" y1="0.5" x2="1" y2="0.5" xlink:href="#linear-gradient"></linearGradient><linearGradient id="linear-gradient-4" x1="0" y1="0.499" x2="1" y2="0.499" xlink:href="#linear-gradient"></linearGradient><linearGradient id="linear-gradient-5" x1="0" y1="0.5" x2="1" y2="0.5" xlink:href="#linear-gradient"></linearGradient><linearGradient id="linear-gradient-6" x1="0" y1="0.5" x2="1" y2="0.5" xlink:href="#linear-gradient"></linearGradient><linearGradient id="linear-gradient-7" x1="0" y1="0.5" x2="1" y2="0.5" xlink:href="#linear-gradient-2"></linearGradient><linearGradient id="linear-gradient-8" x1="0" y1="0.5" x2="1" y2="0.5" xlink:href="#linear-gradient"></linearGradient><linearGradient id="linear-gradient-11" x1="0" y1="0.5" x2="1" y2="0.5" xlink:href="#linear-gradient"></linearGradient><linearGradient id="linear-gradient-12" x1="0" y1="0.497" x2="1" y2="0.497" xlink:href="#linear-gradient"></linearGradient><linearGradient id="linear-gradient-13" x1="0" y1="0.5" x2="1" y2="0.5" xlink:href="#linear-gradient"></linearGradient><linearGradient id="linear-gradient-14" x1="0" y1="0.5" x2="0.999" y2="0.5" xlink:href="#linear-gradient"></linearGradient><linearGradient id="linear-gradient-15" x1="0" y1="0.499" x2="1" y2="0.499" xlink:href="#linear-gradient"></linearGradient><linearGradient id="linear-gradient-18" x1="0" y1="0.499" x2="0.999" y2="0.499" xlink:href="#linear-gradient-2"></linearGradient><linearGradient id="linear-gradient-19" x1="0" y1="0.499" x2="1" y2="0.499" xlink:href="#linear-gradient"></linearGradient><linearGradient id="linear-gradient-20" x1="0" y1="0.499" x2="1" y2="0.499" xlink:href="#linear-gradient"></linearGradient><linearGradient id="linear-gradient-24" x1="0.001" y1="0.5" x2="1.001" y2="0.5" xlink:href="#linear-gradient"></linearGradient><linearGradient id="linear-gradient-25" x1="0.05" y1="0.595" x2="2.213" y2="0.108" gradientUnits="objectBoundingBox"><stop offset="0" stop-color="#e9f6ff"></stop><stop offset="1" stop-color="#5793ce"></stop></linearGradient></defs><g id="_365_X_250" data-name="365 X 250" transform="translate(-1021 -182)"><rect id="Rectangle_2" data-name="Rectangle 2" width="365" height="250" transform="translate(1021 182)" fill="#081f43"></rect><text id="Ricardian_Contracts" data-name="Ricardian Contracts" transform="translate(1044 381)" fill="#dff1ff" font-size="21" font-family="Poppins-Bold, Poppins" font-weight="700"><tspan x="0" y="0">Ricardian</tspan><tspan x="0" y="25">Contracts</tspan></text><g id="Group_42" data-name="Group 42" transform="translate(923.715 135.58)"><g id="Ñëîé_1" data-name="Ñëîé 1" transform="translate(179.299 64.975)"><g id="Group_40" data-name="Group 40" transform="translate(0)"><g id="Group_13" data-name="Group 13" transform="translate(115.273 39.894)"><path id="Path_259" data-name="Path 259" d="M400.961,141.051h0v-5.429H388.789L384.58,133.2a4.193,4.193,0,0,0-3.763.156l-3.911,2.261h-12.2v5.578a1.1,1.1,0,0,0,.649,1.009l15.732,9.082a4.193,4.193,0,0,0,3.763-.156l15.192-8.777A1.494,1.494,0,0,0,400.961,141.051Z" transform="translate(-364.708 -125.159)" fill="#173d7a"></path><path id="Path_260" data-name="Path 260" d="M382.836,132.81a4.31,4.31,0,0,0-2.018.532l-3.911,2.261h-12.2v5.578a1.1,1.1,0,0,0,.649,1.009l15.732,9.082a3.419,3.419,0,0,0,1.745.376Z" transform="translate(-364.708 -125.155)" fill="url(#linear-gradient)"></path><path id="Path_261" data-name="Path 261" d="M366.087,136.38H364.71v5.578a1.1,1.1,0,0,0,.649,1.009l.727.422Z" transform="translate(-364.708 -125.933)" fill="#5793ce"></path><path id="Path_262" data-name="Path 262" d="M386,154.8a4.271,4.271,0,0,0,3,0V148.46h-3Z" transform="translate(-369.343 -128.563)" fill="#5793ce"></path><path id="Path_263" data-name="Path 263" d="M381.091,143.579,365.359,134.5c-.962-.555-.845-1.565.266-2.175l15.192-8.769a4.193,4.193,0,0,1,3.763-.156l15.732,9.082c.97.555.845,1.565-.266,2.175l-15.192,8.769A4.193,4.193,0,0,1,381.091,143.579Z" transform="translate(-364.708 -123.025)" fill="url(#linear-gradient-2)"></path><path id="Path_264" data-name="Path 264" d="M400.046,136.341l-15.192,8.769a4.162,4.162,0,0,1-3.763.149l-15.732-9.075a1.471,1.471,0,0,1-.485-.43,1.009,1.009,0,0,0,.485,1.494l15.732,9.082a4.193,4.193,0,0,0,3.763-.156l15.192-8.769c.861-.5,1.126-1.2.782-1.744A2.222,2.222,0,0,1,400.046,136.341Z" transform="translate(-364.708 -125.776)" fill="#fff"></path><g id="Group_11" data-name="Group 11" transform="translate(29.197 14.511)"><path id="Path_265" data-name="Path 265" d="M403.3,145.043a1.4,1.4,0,0,1-.634,1.1.392.392,0,0,1-.634-.368,1.4,1.4,0,0,1,.634-1.1C403.016,144.472,403.3,144.637,403.3,145.043Z" transform="translate(-402.03 -142.231)" fill="#d4ecff"></path><path id="Path_266" data-name="Path 266" d="M405.915,143.533a1.408,1.408,0,0,1-.641,1.1c-.352.2-.634.039-.634-.368a1.4,1.4,0,0,1,.634-1.1C405.626,142.962,405.915,143.127,405.915,143.533Z" transform="translate(-402.598 -141.902)" fill="#ff2c9c"></path><path id="Path_267" data-name="Path 267" d="M408.525,142.025a1.424,1.424,0,0,1-.634,1.1c-.352.2-.641.039-.641-.368a1.408,1.408,0,0,1,.641-1.1C408.236,141.461,408.525,141.626,408.525,142.025Z" transform="translate(-403.166 -141.575)" fill="#d4ecff"></path></g><g id="Group_12" data-name="Group 12" transform="translate(9.642 5.29)"><path id="Path_268" data-name="Path 268" d="M384.7,139.424l-7.353-4.248c-.454-.258-.4-.72.125-1.017l7.1-4.107a1.987,1.987,0,0,1,1.768-.07l7.353,4.248c.454.266.4.72-.125,1.017l-7.1,4.1a1.963,1.963,0,0,1-1.768.078Z" transform="translate(-377.034 -129.792)" fill="#5793ce"></path><path id="Path_269" data-name="Path 269" d="M387.443,137.183l-1.025-.587c-.063,0-.055-.094,0-.141l.978-.563a.282.282,0,0,1,.25,0l1.017.595c.063,0,.055.094,0,.141l-.978.563A.266.266,0,0,1,387.443,137.183Z" transform="translate(-379.067 -131.11)" fill="#d4ecff"></path><path id="Path_270" data-name="Path 270" d="M377.344,135.172h0l.11-.078,7.1-4.1a1.971,1.971,0,0,1,1.768-.078l7.338,4.24c.415-.3.438-.7,0-.947l-7.353-4.248a1.987,1.987,0,0,0-1.768.07l-7.1,4.107C376.945,134.452,376.89,134.913,377.344,135.172Z" transform="translate(-377.033 -129.788)" fill="#396caa"></path></g></g><g id="Group_14" data-name="Group 14" transform="translate(141.387 57.609)"><path id="Path_271" data-name="Path 271" d="M514.547,214.728a1.275,1.275,0,0,1-.641-.172L495.38,203.862a1.286,1.286,0,0,1,1.283-2.23l18.525,10.7a1.283,1.283,0,0,1-.641,2.394Z" transform="translate(-419.131 -157.816)" fill="url(#linear-gradient-3)"></path><path id="Path_272" data-name="Path 272" d="M466.4,186.938a1.275,1.275,0,0,1-.641-.172l-19.025-10.952a1.283,1.283,0,1,1,1.283-2.222l19.025,10.952a1.283,1.283,0,0,1-.642,2.394Z" transform="translate(-408.54 -151.711)" fill="url(#linear-gradient-4)"></path><path id="Path_273" data-name="Path 273" d="M417.9,158.93a1.275,1.275,0,0,1-.641-.172l-18.525-10.694a1.283,1.283,0,1,1,1.283-2.222l18.524,10.694a1.283,1.283,0,0,1,.469,1.752A1.267,1.267,0,0,1,417.9,158.93Z" transform="translate(-398.09 -145.67)" fill="url(#linear-gradient-5)"></path></g><g id="Group_18" data-name="Group 18" transform="translate(63.526 72.998)"><path id="Path_274" data-name="Path 274" d="M309.4,226.715l48.228-27.865-54.369,2.566-3.379,3.223-.728,4.85.532,3.293,1.619,4,1.612,3.137,1.815,2.347Z" transform="translate(-298.688 -172.638)" fill="url(#linear-gradient-6)"></path><path id="Path_275" data-name="Path 275" d="M350.672,166.163l.25-.141h0c1.924-1.033,4.545-.845,7.424.782l65.884,38.042a4.489,4.489,0,0,0-.782.735l-2.425-1.385-13.3,28.945-6.908,9.387-4.5,1.565-4.514-1.768-21.9-12.454-43.534-24.806L310.431,195.5l-4.162-1.322-3.739-.227Z" transform="translate(-299.424 -165.351)" fill="#d4ecff"></path><g id="Group_15" data-name="Group 15" transform="translate(3.129)"><path id="Path_276" data-name="Path 276" d="M402.744,236.951c0-6.814-4.8-15.137-10.709-18.548v1.173c5.343,3.129,9.693,10.616,9.693,16.788s-4.349,8.683-9.693,5.6l-81.89-47.281c-2.949-1.705-5.632-1.862-7.565-.782l48.1-27.779.25-.141h0c1.924-1.033,4.545-.845,7.424.782l65.884,38.042a4.492,4.492,0,0,0-.782.735l-2.425-1.353-13.3,28.945-5.515,7.526A10.952,10.952,0,0,0,402.744,236.951Z" transform="translate(-302.564 -165.342)" fill="url(#linear-gradient-7)"></path><path id="Path_277" data-name="Path 277" d="M302.56,201.9Z" transform="translate(-302.56 -173.302)" fill="#d4ecff"></path></g><g id="Group_17" data-name="Group 17" transform="translate(3.129 27.219)"><g id="Group_16" data-name="Group 16" transform="translate(0.016)"><path id="Path_278" data-name="Path 278" d="M429.712,253.185v.344a22.21,22.21,0,0,0-3.262-10.459l.274-.18A21.732,21.732,0,0,1,429.712,253.185Z" transform="translate(-329.548 -209.445)" fill="#fff"></path><path id="Path_279" data-name="Path 279" d="M310.145,201.594l81.89,47.281c5.218,3.012,9.489.688,9.685-5.163v.219c0,6.172-4.349,8.683-9.693,5.6l-81.882-47.273c-2.949-1.705-5.632-1.862-7.565-.782l2.347-1.338A9.27,9.27,0,0,1,310.145,201.594Z" transform="translate(-302.58 -200.136)" fill="#fff"></path><path id="Path_280" data-name="Path 280" d="M435.4,243.1l13.3-28.945,2.5,1.447a4.435,4.435,0,0,1,.313-.344l.446.258a4.492,4.492,0,0,0-.782.735l-2.409-1.439-13.3,28.945-5.515,7.526a9.494,9.494,0,0,0,.305-1.064Z" transform="translate(-330.31 -203.19)" fill="#fff"></path></g><path id="Path_281" data-name="Path 281" d="M302.56,201.068h0l.008-.008Z" transform="translate(-302.56 -200.338)" fill="#d4ecff"></path></g><path id="Path_282" data-name="Path 282" d="M465.166,197.56h0c5.906,3.411,10.709,11.734,10.709,18.548,0,3.293-1.126,5.64-2.949,6.806h0l-.329.2-48.056,27.763,2.941-5.312-.344-5.312-.931-2.988-1.416-3.184s-1.173-2.175-1.252-2.222-1.737-2.206-1.737-2.206l-1.619-1.69-1.791-1.111-1.463-1.432Z" transform="translate(-324.331 -172.357)" fill="url(#linear-gradient-8)"></path><path id="Path_283" data-name="Path 283" d="M309.269,227.179v-1.15c-5.343-3.082-9.693-10.616-9.693-16.788s4.349-8.683,9.693-5.593l81.889,47.281c5.906,3.411,10.709.634,10.709-6.188s-4.8-15.137-10.709-18.548v1.173c5.343,3.129,9.693,10.616,9.693,16.788s-4.349,8.683-9.693,5.6l-81.889-47.313c-5.906-3.411-10.709-.641-10.709,6.18S303.363,223.769,309.269,227.179Z" transform="translate(-298.56 -173.102)" fill="#173d7a"></path></g><g id="Group_19" data-name="Group 19" transform="translate(112.748 94.392)"><path id="Path_284" data-name="Path 284" d="M399.311,218.4,362.88,197.16l-1.4.8L397.911,219.2Z" transform="translate(-361.48 -193.663)" fill="#5793ce"></path><path id="Path_285" data-name="Path 285" d="M400.388,209.994,370.7,192.69l-1.4.8L398.988,210.8Z" transform="translate(-363.183 -192.69)" fill="#5793ce"></path><path id="Path_286" data-name="Path 286" d="M394.374,211,366.79,194.92l-1.4.8L392.973,211.8Z" transform="translate(-362.331 -193.175)" fill="#5793ce"></path><path id="Path_287" data-name="Path 287" d="M411.484,220.977l-6.743-3.927-1.4.8,6.743,3.927Z" transform="translate(-370.594 -197.994)" fill="#5793ce"></path></g><g id="Group_22" data-name="Group 22" transform="translate(229.8 107.03)"><path id="Path_288" data-name="Path 288" d="M547.361,226.871h0v-5.429H535.189l-4.209-2.425a4.193,4.193,0,0,0-3.763.156l-3.911,2.261h-12.2v5.578a1.1,1.1,0,0,0,.649,1.009l15.732,9.082a4.193,4.193,0,0,0,3.763-.156l15.192-8.769a1.494,1.494,0,0,0,.915-1.306Z" transform="translate(-511.109 -210.979)" fill="#173d7a"></path><path id="Path_289" data-name="Path 289" d="M529.235,218.63a4.311,4.311,0,0,0-2.018.532l-3.911,2.261h-12.2V227a1.1,1.1,0,0,0,.649,1.009l15.732,9.082a3.419,3.419,0,0,0,1.745.376Z" transform="translate(-511.109 -210.975)" fill="url(#linear-gradient)"></path><path id="Path_290" data-name="Path 290" d="M512.487,222.2H511.11v5.578a1.1,1.1,0,0,0,.649,1.009l.728.422Z" transform="translate(-511.109 -211.753)" fill="#5793ce"></path><path id="Path_291" data-name="Path 291" d="M532.36,240.616a4.271,4.271,0,0,0,3,0V234.28h-3Z" transform="translate(-515.735 -214.383)" fill="#5793ce"></path><path id="Path_292" data-name="Path 292" d="M527.491,229.4l-15.732-9.082c-.962-.555-.845-1.565.274-2.175l15.184-8.769a4.193,4.193,0,0,1,3.763-.156l15.732,9.082c.97.555.845,1.565-.266,2.175l-15.192,8.769A4.193,4.193,0,0,1,527.491,229.4Z" transform="translate(-511.109 -208.845)" fill="url(#linear-gradient-2)"></path><path id="Path_293" data-name="Path 293" d="M546.446,222.161l-15.192,8.762a4.146,4.146,0,0,1-3.763.156L511.759,222a1.471,1.471,0,0,1-.485-.43,1.009,1.009,0,0,0,.485,1.494l15.732,9.082a4.193,4.193,0,0,0,3.763-.156l15.192-8.769c.86-.5,1.126-1.2.782-1.744a2.221,2.221,0,0,1-.782.681Z" transform="translate(-511.109 -211.596)" fill="#fff"></path><g id="Group_20" data-name="Group 20" transform="translate(29.196 14.515)"><path id="Path_294" data-name="Path 294" d="M549.7,230.872a1.4,1.4,0,0,1-.634,1.1.393.393,0,0,1-.634-.368,1.4,1.4,0,0,1,.634-1.1C549.416,230.293,549.7,230.457,549.7,230.872Z" transform="translate(-548.43 -228.056)" fill="#d4ecff"></path><path id="Path_295" data-name="Path 295" d="M552.315,229.355a1.408,1.408,0,0,1-.642,1.1c-.352.2-.634.039-.634-.368a1.4,1.4,0,0,1,.634-1.1A.4.4,0,0,1,552.315,229.355Z" transform="translate(-548.998 -227.727)" fill="#d4ecff"></path><path id="Path_296" data-name="Path 296" d="M554.925,227.869a1.424,1.424,0,0,1-.634,1.1c-.352.2-.641.039-.641-.368a1.408,1.408,0,0,1,.641-1.1C554.636,227.275,554.925,227.439,554.925,227.869Z" transform="translate(-549.566 -227.4)" fill="#d4ecff"></path></g><g id="Group_21" data-name="Group 21" transform="translate(9.644 5.29)"><path id="Path_297" data-name="Path 297" d="M531.106,225.244,523.745,221c-.454-.258-.4-.72.125-1.017l7.1-4.107a1.987,1.987,0,0,1,1.768-.07l7.354,4.248c.454.266.4.72-.125,1.017l-7.1,4.107a1.948,1.948,0,0,1-1.76.07Z" transform="translate(-523.437 -215.612)" fill="#5793ce"></path><path id="Path_298" data-name="Path 298" d="M533.843,223l-1.025-.587c-.063,0-.055-.094,0-.141l.978-.563a.282.282,0,0,1,.25,0l1.017.595c.063,0,.055.094,0,.141l-.978.563A.266.266,0,0,1,533.843,223Z" transform="translate(-525.47 -216.93)" fill="#d4ecff"></path><path id="Path_299" data-name="Path 299" d="M523.745,220.992h0l.109-.078,7.1-4.1a1.971,1.971,0,0,1,1.768-.078l7.338,4.24c.415-.3.438-.7,0-.947l-7.353-4.248a1.987,1.987,0,0,0-1.768.07l-7.064,4.123C523.346,220.272,523.291,220.733,523.745,220.992Z" transform="translate(-523.438 -215.608)" fill="#396caa"></path></g></g><g id="Group_23" data-name="Group 23" transform="translate(143.281 124.3)"><path id="Path_300" data-name="Path 300" d="M401.793,299.988a1.283,1.283,0,0,1-.641-2.394l18.517-10.7a1.283,1.283,0,1,1,1.283,2.222l-18.493,10.7A1.275,1.275,0,0,1,401.793,299.988Z" transform="translate(-400.51 -243.07)" fill="url(#linear-gradient-11)"></path><path id="Path_301" data-name="Path 301" d="M449.793,272.237a1.283,1.283,0,0,1-.641-2.394l19.025-10.952a1.285,1.285,0,1,1,1.291,2.222l-19.033,10.952A1.251,1.251,0,0,1,449.793,272.237Z" transform="translate(-410.961 -236.973)" fill="url(#linear-gradient-12)"></path><path id="Path_302" data-name="Path 302" d="M498.443,244.188a1.283,1.283,0,0,1-.642-2.394l18.524-10.7a1.29,1.29,0,1,1,1.283,2.237l-18.524,10.7a1.275,1.275,0,0,1-.641.156Z" transform="translate(-421.553 -230.921)" fill="url(#linear-gradient-13)"></path></g><g id="Group_24" data-name="Group 24" transform="translate(28.269 57.609)"><path id="Path_303" data-name="Path 303" d="M254.773,214.728a1.283,1.283,0,0,1-.641-2.394l18.532-10.7a1.286,1.286,0,1,1,1.283,2.23l-18.493,10.694a1.275,1.275,0,0,1-.681.172Z" transform="translate(-253.49 -157.816)" fill="url(#linear-gradient-14)"></path><path id="Path_304" data-name="Path 304" d="M302.774,186.938a1.275,1.275,0,0,1-1.111-.641,1.291,1.291,0,0,1,.469-1.752l19.025-10.952a1.283,1.283,0,1,1,1.283,2.222l-19.025,10.952a1.275,1.275,0,0,1-.641.172Z" transform="translate(-263.941 -151.711)" fill="url(#linear-gradient-15)"></path><path id="Path_305" data-name="Path 305" d="M351.413,158.93a1.283,1.283,0,0,1-.641-2.394L369.3,145.842a1.283,1.283,0,1,1,1.283,2.222l-18.532,10.694A1.252,1.252,0,0,1,351.413,158.93Z" transform="translate(-274.53 -145.67)" fill="url(#linear-gradient-5)"></path></g><g id="Group_27" data-name="Group 27" transform="translate(0 106.93)"><path id="Path_306" data-name="Path 306" d="M253.611,226.719h0V221.29H241.439L237.23,218.9a4.193,4.193,0,0,0-3.763.156l-3.911,2.269h-12.2V226.9a1.1,1.1,0,0,0,.649,1.009l15.732,9.059a4.17,4.17,0,0,0,3.763-.156l15.192-8.769A1.494,1.494,0,0,0,253.611,226.719Z" transform="translate(-217.355 -210.853)" fill="#173d7a"></path><path id="Path_307" data-name="Path 307" d="M235.486,218.5a4.4,4.4,0,0,0-2.018.532l-3.911,2.269h-12.2v5.578a1.1,1.1,0,0,0,.649,1.009l15.732,9.075a3.4,3.4,0,0,0,1.745.375Z" transform="translate(-217.355 -210.848)" fill="url(#linear-gradient)"></path><path id="Path_308" data-name="Path 308" d="M218.737,222.07H217.36v5.578a1.1,1.1,0,0,0,.649,1.009l.728.422Z" transform="translate(-217.355 -211.625)" fill="#5793ce"></path><path id="Path_309" data-name="Path 309" d="M238.61,240.486a4.271,4.271,0,0,0,3,0V234.15h-3Z" transform="translate(-221.982 -214.255)" fill="#5793ce"></path><path id="Path_310" data-name="Path 310" d="M233.74,229.278,218.008,220.2c-.97-.555-.845-1.525.266-2.175l15.231-8.769a4.146,4.146,0,0,1,3.763-.156L253,218.17c.962.563.845,1.565-.266,2.175l-15.192,8.769A4.146,4.146,0,0,1,233.74,229.278Z" transform="translate(-217.354 -208.718)" fill="url(#linear-gradient-18)"></path><path id="Path_311" data-name="Path 311" d="M252.7,222.033,237.5,230.8a4.193,4.193,0,0,1-3.763.156l-15.732-9.1a1.47,1.47,0,0,1-.485-.43,1.009,1.009,0,0,0,.485,1.494l15.732,9.106a4.146,4.146,0,0,0,3.763-.156L252.7,223.1c.861-.5,1.126-1.2.782-1.745a2.222,2.222,0,0,1-.782.673Z" transform="translate(-217.355 -211.47)" fill="#fff"></path><g id="Group_25" data-name="Group 25" transform="translate(29.2 14.512)"><path id="Path_312" data-name="Path 312" d="M255.947,230.734a1.4,1.4,0,0,1-.634,1.1.393.393,0,0,1-.634-.368,1.4,1.4,0,0,1,.634-1.1C255.666,230.171,255.947,230.328,255.947,230.734Z" transform="translate(-254.68 -227.925)" fill="#d4ecff"></path><path id="Path_313" data-name="Path 313" d="M258.557,229.226a1.4,1.4,0,0,1-.634,1.1c-.352.2-.634.039-.634-.368a1.377,1.377,0,0,1,.634-1.1C258.276,228.662,258.557,228.827,258.557,229.226Z" transform="translate(-255.248 -227.597)" fill="#d4ecff"></path><path id="Path_314" data-name="Path 314" d="M261.175,227.723a1.424,1.424,0,0,1-.634,1.1c-.352.2-.641.039-.641-.368a1.408,1.408,0,0,1,.641-1.1C260.886,227.152,261.175,227.317,261.175,227.723Z" transform="translate(-255.816 -227.268)" fill="#d4ecff"></path></g><g id="Group_26" data-name="Group 26" transform="translate(9.645 5.29)"><path id="Path_315" data-name="Path 315" d="M237.348,225.122l-7.353-4.256c-.454-.258-.4-.712.125-1.017l7.1-4.1a1.971,1.971,0,0,1,1.768-.078l7.353,4.256c.454.258.4.712-.125,1.017l-7.1,4.1a1.971,1.971,0,0,1-1.768.078Z" transform="translate(-229.684 -215.484)" fill="#5793ce"></path><path id="Path_316" data-name="Path 316" d="M240.093,222.88l-1.025-.587a.078.078,0,0,1,0-.141l.978-.571a.266.266,0,0,1,.242,0l1.025.587c.063,0,.055.1,0,.141l-.978.563a.266.266,0,0,1-.242.008Z" transform="translate(-231.717 -216.802)" fill="#d4ecff"></path><path id="Path_317" data-name="Path 317" d="M229.994,220.862h0l.109-.07,7.1-4.107a1.964,1.964,0,0,1,1.768-.07l7.338,4.232c.415-.3.438-.7,0-.939l-7.353-4.256a1.971,1.971,0,0,0-1.768.078l-7.1,4.1C229.595,220.15,229.54,220.58,229.994,220.862Z" transform="translate(-229.683 -215.48)" fill="#396caa"></path></g></g><g id="Group_28" data-name="Group 28" transform="translate(26.282 125.237)"><path id="Path_318" data-name="Path 318" d="M367.4,301.184a1.3,1.3,0,0,1-.642-.172l-18.524-10.678a1.283,1.283,0,1,1,1.283-2.222l18.532,10.7a1.283,1.283,0,0,1,.469,1.752,1.306,1.306,0,0,1-1.119.618Z" transform="translate(-271.99 -244.273)" fill="url(#linear-gradient-19)"></path><path id="Path_319" data-name="Path 319" d="M319.258,273.388a1.275,1.275,0,0,1-.641-.172l-19.025-10.952a1.283,1.283,0,1,1,1.283-2.222L319.9,270.994a1.283,1.283,0,0,1,.469,1.752,1.267,1.267,0,0,1-1.111.641Z" transform="translate(-261.4 -238.161)" fill="url(#linear-gradient-20)"></path><path id="Path_320" data-name="Path 320" d="M270.757,245.38a1.275,1.275,0,0,1-.641-.172l-18.525-10.694a1.283,1.283,0,1,1,1.283-2.222L271.4,242.978a1.283,1.283,0,0,1-.641,2.394Z" transform="translate(-250.95 -232.12)" fill="url(#linear-gradient-5)"></path></g><g id="Group_31" data-name="Group 31" transform="translate(115.273 171.936)"><path id="Path_321" data-name="Path 321" d="M400.961,309.84h0v-5.429H388.789l-4.209-2.425a4.17,4.17,0,0,0-3.763.156l-3.911,2.261h-12.2v5.586a1.1,1.1,0,0,0,.649,1.009l15.732,9.082a4.193,4.193,0,0,0,3.763-.156l15.192-8.769A1.494,1.494,0,0,0,400.961,309.84Z" transform="translate(-364.709 -293.948)" fill="#173d7a"></path><path id="Path_322" data-name="Path 322" d="M382.836,301.6a4.311,4.311,0,0,0-2.018.532l-3.911,2.261h-12.2v5.586a1.1,1.1,0,0,0,.649,1.009l15.732,9.082a3.418,3.418,0,0,0,1.744.375Z" transform="translate(-364.709 -293.945)" fill="url(#linear-gradient-5)"></path><path id="Path_323" data-name="Path 323" d="M366.087,305.17H364.71v5.586a1.1,1.1,0,0,0,.649,1.009l.727.422Z" transform="translate(-364.709 -294.723)" fill="#5793ce"></path><path id="Path_324" data-name="Path 324" d="M386,323.576a4.271,4.271,0,0,0,3,0V317.2h-3Z" transform="translate(-369.344 -297.342)" fill="#5793ce"></path><path id="Path_325" data-name="Path 325" d="M381.091,312.37l-15.732-9.082c-.962-.555-.845-1.565.274-2.175l15.184-8.769a4.193,4.193,0,0,1,3.763-.156l15.732,9.082c.97.555.845,1.565-.266,2.175l-15.192,8.769A4.193,4.193,0,0,1,381.091,312.37Z" transform="translate(-364.709 -291.815)" fill="url(#linear-gradient-2)"></path><path id="Path_326" data-name="Path 326" d="M400.046,305.131l-15.192,8.762a4.146,4.146,0,0,1-3.763.156l-15.732-9.074a1.471,1.471,0,0,1-.485-.43,1.009,1.009,0,0,0,.485,1.494l15.732,9.082a4.193,4.193,0,0,0,3.763-.156l15.192-8.769c.861-.5,1.126-1.2.782-1.745a2.221,2.221,0,0,1-.782.681Z" transform="translate(-364.709 -294.566)" fill="#fff"></path><g id="Group_29" data-name="Group 29" transform="translate(29.196 14.506)"><path id="Path_327" data-name="Path 327" d="M403.3,313.868a1.4,1.4,0,0,1-.634,1.1.394.394,0,0,1-.634-.368,1.4,1.4,0,0,1,.634-1.1C403.016,313.266,403.3,313.43,403.3,313.868Z" transform="translate(-402.03 -311.019)" fill="#d4ecff"></path><path id="Path_328" data-name="Path 328" d="M405.915,312.323a1.408,1.408,0,0,1-.641,1.1c-.352.2-.634.039-.634-.368a1.4,1.4,0,0,1,.634-1.1C405.626,311.752,405.915,311.917,405.915,312.323Z" transform="translate(-402.598 -310.687)" fill="#d4ecff"></path><path id="Path_329" data-name="Path 329" d="M408.525,310.813a1.424,1.424,0,0,1-.634,1.1.4.4,0,0,1-.641-.368,1.408,1.408,0,0,1,.641-1.1C408.236,310.242,408.525,310.407,408.525,310.813Z" transform="translate(-403.166 -310.358)" fill="#d4ecff"></path></g><g id="Group_30" data-name="Group 30" transform="translate(9.641 5.29)"><path id="Path_330" data-name="Path 330" d="M384.706,308.214l-7.361-4.248c-.454-.258-.4-.72.125-1.017l7.1-4.107a1.987,1.987,0,0,1,1.768-.07l7.361,4.248c.446.266.391.72-.133,1.017l-7.1,4.107A1.948,1.948,0,0,1,384.706,308.214Z" transform="translate(-377.034 -298.582)" fill="#5793ce"></path><path id="Path_331" data-name="Path 331" d="M387.443,305.973l-1.025-.587c-.063,0-.055-.094,0-.141l.978-.563a.282.282,0,0,1,.25,0l1.017.595c.063,0,.055.094,0,.141l-.978.563a.266.266,0,0,1-.243-.008Z" transform="translate(-379.066 -299.9)" fill="#d4ecff"></path><path id="Path_332" data-name="Path 332" d="M377.343,303.962h0l.11-.078,7.1-4.1a1.971,1.971,0,0,1,1.768-.078l7.338,4.24c.415-.3.438-.7,0-.947l-7.361-4.248a1.987,1.987,0,0,0-1.768.07l-7.1,4.107C376.944,303.242,376.89,303.7,377.343,303.962Z" transform="translate(-377.032 -298.578)" fill="#396caa"></path></g></g><g id="Group_37" data-name="Group 37" transform="translate(154.457)"><g id="Group_35" data-name="Group 35" transform="translate(0 9.475)"><path id="Path_333" data-name="Path 333" d="M414.956,217.145h0a.274.274,0,0,1-.156-.282l.524-3.833,2.636,1.291-2.691,2.769a.289.289,0,0,1-.313.055Z" transform="translate(-414.797 -112.201)" fill="#fff"></path><g id="Group_32" data-name="Group 32" transform="translate(0.286 42.797)"><path id="Path_334" data-name="Path 334" d="M425.712,200.794a7.979,7.979,0,0,1-6.493-3.129c-1.291-1.909-.477-3.591,1.823-3.755a7.987,7.987,0,0,1,6.5,3.129C428.834,198.955,428.012,200.629,425.712,200.794Z" transform="translate(-415.912 -150.836)" fill="#396caa"></path><path id="Path_335" data-name="Path 335" d="M448.674,145.978l-10.858-5.288L418,183.512l4.694,2.3-4.694-2.3-.149.313a26.6,26.6,0,0,0-2.589,13.956.7.7,0,0,0,.125.618,2.1,2.1,0,0,0,1.7.829.681.681,0,0,0,.563-.282l1.017-.735a26.637,26.637,0,0,0,7.635-8.605l.892-1.565h0Z" transform="translate(-415.162 -139.249)" fill="url(#linear-gradient-24)"></path><path id="Path_336" data-name="Path 336" d="M452.291,147.017a9.442,9.442,0,0,1-7.682-3.731c-1.526-2.261-.555-4.248,2.159-4.436a9.427,9.427,0,0,1,7.682,3.739C455.976,144.842,455.005,146.829,452.291,147.017Z" transform="translate(-421.416 -138.848)" fill="#d4ecff"></path></g><path id="Path_337" data-name="Path 337" d="M453.431,144.725a9.458,9.458,0,0,1-7.682-3.739c-1.525-2.261-.555-4.24,2.159-4.436a9.473,9.473,0,0,1,7.682,3.739C457.108,142.511,456.145,144.5,453.431,144.725Z" transform="translate(-421.379 -95.55)" fill="#d4ecff"></path><g id="Group_33" data-name="Group 33" transform="translate(22.119)"><path id="Path_338" data-name="Path 338" d="M452.091,147.435a9.474,9.474,0,0,1-7.682-3.739c-1.525-2.261-.555-4.24,2.159-4.436A9.473,9.473,0,0,1,454.25,143C455.776,145.252,454.806,147.239,452.091,147.435Z" transform="translate(-443.206 -96.14)" fill="#5793ce"></path><path id="Path_339" data-name="Path 339" d="M451.957,147.975a9.474,9.474,0,0,1-7.682-3.739,3.38,3.38,0,0,1-.673-2.5c-.735.829-.735,2.1.188,3.466a9.473,9.473,0,0,0,7.682,3.739c1.619-.117,2.613-.876,2.832-1.948A3.4,3.4,0,0,1,451.957,147.975Z" transform="translate(-443.072 -96.68)" fill="#fff"></path><rect id="Rectangle_8" data-name="Rectangle 8" width="2.675" height="12.078" transform="translate(0.712 44.578) rotate(-64.04)" fill="#5793ce"></rect><path id="Path_340" data-name="Path 340" d="M476.779,89.42l-10.858-5.28-20.527,42.134h0l-.117.258h0a3.207,3.207,0,0,0,.618,2.73,9.426,9.426,0,0,0,7.674,3.732,3.168,3.168,0,0,0,2.527-1.2h0Z" transform="translate(-443.534 -84.14)" fill="url(#linear-gradient-25)"></path></g><g id="Group_34" data-name="Group 34" transform="translate(25.39 2.448)"><path id="Path_341" data-name="Path 341" d="M458.414,99.5l-.829-1.228a2.769,2.769,0,0,1,.078-2.785l2.253-4.615a3.34,3.34,0,0,1,2.519-1.705l2.214-.156a1.846,1.846,0,0,0,1.072-.532l1.04.086-.72-1.056h0a.563.563,0,0,0-.555-.227l-2.214.156a7.04,7.04,0,0,0-5.265,3.536l-2.245,4.615a3.883,3.883,0,0,0-.117,3.958l.837,1.228a2.769,2.769,0,0,1-.078,2.785l-9.067,18.618a.571.571,0,0,0,0,.595h0l.72,1.048.289-.97a1.838,1.838,0,0,0,.907-.782l9.051-18.579A3.975,3.975,0,0,0,458.414,99.5Z" transform="translate(-447.253 -87.269)" fill="#5793ce"></path><path id="Path_342" data-name="Path 342" d="M458.513,99.636a2.754,2.754,0,0,1,.078-2.785l2.245-4.615a3.38,3.38,0,0,1,2.527-1.705l2.214-.156a1.846,1.846,0,0,0,1.369-.923c.227-.477,0-.829-.532-.782l-2.214.149a7.041,7.041,0,0,0-5.265,3.559L456.69,97a3.8,3.8,0,0,0-.117,3.911l.837,1.228a2.769,2.769,0,0,1-.078,2.785l-9.067,18.618c-.235.477,0,.829.532.782a1.8,1.8,0,0,0,1.369-.923l9.067-18.618a3.862,3.862,0,0,0,.109-3.958Z" transform="translate(-447.454 -87.573)" fill="#5793ce"></path></g></g><path id="Path_343" data-name="Path 343" d="M479.821,90.473a9.473,9.473,0,0,1-7.682-3.708c-1.525-2.253-.555-4.24,2.159-4.436a9.474,9.474,0,0,1,7.682,3.739C483.505,88.33,482.535,90.278,479.821,90.473Z" transform="translate(-427.124 -74.271)" fill="#d4ecff"></path><path id="Path_344" data-name="Path 344" d="M479.456,89.409a6.258,6.258,0,0,1-4.694-2.566c-.978-1.447-.462-2.652,1.142-2.683a6.258,6.258,0,0,1,4.694,2.566C481.576,88.173,481.1,89.378,479.456,89.409Z" transform="translate(-427.745 -74.669)" fill="#396caa"></path><g id="Group_36" data-name="Group 36" transform="translate(47.988)"><path id="Path_345" data-name="Path 345" d="M480.934,84.765l-4.694-2.284,4.373-8.988a2.613,2.613,0,0,1,3.481-1.2h0a2.613,2.613,0,0,1,1.2,3.489Z" transform="translate(-476.163 -72.028)" fill="#2c4fff"></path><path id="Path_346" data-name="Path 346" d="M479.762,88.111a4.036,4.036,0,0,1-3.309-1.643c-.657-.97-.243-1.831.931-1.909a4.036,4.036,0,0,1,3.34,1.643C481.35,87.173,480.936,88.033,479.762,88.111Z" transform="translate(-476.141 -74.756)" fill="#2c4fff"></path></g></g><path id="Path_347" data-name="Path 347" d="M370.385,234.739l.2-.1c7.111-4.115,7.111-10.772,0-14.863s-18.65-4.115-25.768,0c-.149.086-.282.18-.43.274a11.327,11.327,0,0,1,2.347,1.04Z" transform="translate(-245.011 -103.525)" fill="#5793ce"></path><g id="Group_39" data-name="Group 39" transform="translate(94.462 103.294)"><g id="Group_38" data-name="Group 38"><path id="Path_348" data-name="Path 348" d="M374.557,218.8v-3.348h-.97a11.609,11.609,0,0,0-4.373-4.091c-7.111-4.107-18.65-4.107-25.768,0a11.664,11.664,0,0,0-4.373,4.091h-.962v3.325h0c0,2.7,1.768,5.406,5.335,7.463,7.119,4.115,18.658,4.115,25.776,0C372.773,224.192,374.557,221.5,374.557,218.8Z" transform="translate(-338.106 -204.987)" fill="#0054d3"></path><path id="Path_349" data-name="Path 349" d="M369.22,222.008c-7.119,4.107-18.657,4.107-25.776,0s-7.119-10.772,0-14.863,18.657-4.107,25.768,0S376.355,217.869,369.22,222.008Z" transform="translate(-338.105 -204.07)" fill="#2c4fff"></path><path id="Path_350" data-name="Path 350" d="M369.226,225.023c-7.119,4.107-18.657,4.107-25.776,0-3.411-1.971-5.171-4.522-5.312-7.1-.149,2.8,1.6,5.632,5.312,7.776,7.119,4.107,18.658,4.107,25.776,0,3.7-2.143,5.476-4.975,5.3-7.776C374.389,220.47,372.628,223.02,369.226,225.023Z" transform="translate(-338.11 -207.085)" fill="#fff"></path></g><path id="Path_351" data-name="Path 351" d="M350.045,219.542a.782.782,0,0,1-.485-.665v-6.861c0-.524.743-.947,1.643-.947s1.643.43,1.643.954V217.7l16.5-1.995c.884-.11,1.752.219,1.94.728s-.375,1.017-1.259,1.126l-18.485,2.261a2.55,2.55,0,0,1-1.369-.188Z" transform="translate(-340.599 -205.594)" fill="#fff"></path></g></g></g></g></g></svg> 