<?xml version="1.0" encoding="UTF-8"?> <svg xmlns="http://www.w3.org/2000/svg" id="Layer_1" data-name="Layer 1" viewBox="0 0 71 28"><defs><style>.cls-1{fill:#fff;}.cls-2{fill:#f8bc74;}.cls-3{fill:#f8ba70;}</style></defs><path class="cls-1" d="M32.34,12.53a2.11,2.11,0,0,1,3.92.06c.12-.08.13-.21.2-.31a2.1,2.1,0,0,1,2.13-1,1.92,1.92,0,0,1,1.73,1.32,3.34,3.34,0,0,1,.13,1c0,1.84,0,3.68,0,5.52,0,.34-.12.48-.46.47a10.65,10.65,0,0,0-1.13,0c-.34,0-.47-.13-.47-.47,0-1.46,0-2.92,0-4.38,0-.23,0-.46,0-.68,0-.56-.27-.84-.74-.9a1,1,0,0,0-1.09.67,3.58,3.58,0,0,0-.12,1.08c0,1.4,0,2.8,0,4.2,0,.37-.14.49-.49.48s-.68,0-1,0c-.5,0-.54,0-.54-.53V14.74a3.53,3.53,0,0,0-.07-.86.85.85,0,0,0-.81-.73.9.9,0,0,0-.93.63,3.07,3.07,0,0,0-.15,1v4.31c0,.48,0,.52-.51.52H30.78c-.28,0-.41-.11-.41-.41q0-3.71,0-7.4c0-.3.13-.41.41-.4h1.14c.28,0,.42.12.41.4S32.34,12.29,32.34,12.53Z"></path><path class="cls-1" d="M66.29,12.76l.12-.17a2.09,2.09,0,0,1,4,.8c.08,1,0,1.92,0,2.87s0,1.94,0,2.91c0,.33-.13.46-.45.45s-.78,0-1.17,0-.45-.13-.45-.46c0-1.42,0-2.84,0-4.26a4,4,0,0,0-.09-1.09.82.82,0,0,0-.66-.65.88.88,0,0,0-.9.35,1.76,1.76,0,0,0-.34,1c-.11,1.49,0,3,0,4.46,0,.66,0,.66-.68.66h-1c-.27,0-.39-.11-.39-.38q0-3.72,0-7.44c0-.28.14-.39.4-.38h1.17c.27,0,.39.12.39.39S66.29,12.38,66.29,12.76Z"></path><path class="cls-1" d="M52.94,13.05H50.6c-.46,0-.5-.05-.51-.49,0-.26,0-.53,0-.79s.09-.38.36-.38h4.76c.25,0,.34.12.36.37a2.38,2.38,0,0,1-.5,1.75c-.83,1.09-1.58,2.23-2.4,3.4a8,8,0,0,1,1.74.21c1.29.35,1.5.67,1.31,2,0,.3-.19.35-.53.19a5.65,5.65,0,0,0-4.4-.19c-.19.07-.38.16-.56.24s-.41,0-.41-.24a3.31,3.31,0,0,1,.55-2.42C51.28,15.55,52.05,14.32,52.94,13.05Z"></path><path class="cls-1" d="M20,7.15c0,.9,0,1.79,0,2.69,0,.26-.06.32-.32.23-1.17-.4-2.34-.78-3.51-1.16a.31.31,0,0,1-.26-.35c0-1.77,0-3.53,0-5.29,0-.24.07-.32.31-.24l3.55,1.05c.2,0,.23.17.23.35,0,.91,0,1.82,0,2.72Z"></path><path class="cls-1" d="M4.57,15.75c0,.9,0,1.79,0,2.69,0,.27-.07.31-.32.22-1.16-.39-2.32-.78-3.48-1.15a.36.36,0,0,1-.28-.4q0-2.62,0-5.25c0-.26.05-.32.31-.24,1.16.35,2.31.7,3.48,1a.36.36,0,0,1,.29.43c0,.9,0,1.79,0,2.68Z"></path><path class="cls-1" d="M10.75,24.29c0-.88,0-1.76,0-2.65a.34.34,0,0,1,.31-.41c1.15-.33,2.29-.67,3.44-1,.24-.07.33-.05.33.23,0,1.77,0,3.53,0,5.29a.31.31,0,0,1-.26.35c-1.17.38-2.34.77-3.5,1.18-.28.09-.31,0-.31-.25C10.76,26.1,10.75,25.19,10.75,24.29Z"></path><path class="cls-1" d="M15.88,15.7V13.06c0-.22,0-.34.27-.41,1.18-.33,2.35-.68,3.51-1,.24-.07.3,0,.3.22,0,1.76,0,3.52,0,5.28a.34.34,0,0,1-.27.38q-1.75.57-3.51,1.17c-.24.09-.3,0-.3-.22C15.89,17.53,15.88,16.62,15.88,15.7Z"></path><path class="cls-1" d="M21,10.15V8.58c0-1.36,0-2.72,0-4.08,0-.25,0-.37.31-.44,1.13-.32,2.25-.66,3.37-1l.4-.11V4.31c0,1.39,0,2.77,0,4.16a.41.41,0,0,1-.32.46c-1.16.37-2.32.77-3.48,1.15Z"></path><path class="cls-1" d="M26.15,3l2.59.76L30,4.07a.3.3,0,0,1,.26.35c0,1.81,0,3.62,0,5.44,0,.24-.06.3-.3.22L26.37,8.9c-.12,0-.25-.07-.22-.25V3Z"></path><path class="cls-1" d="M14.82,15.76c0,.88,0,1.76,0,2.64,0,.26,0,.36-.32.26-1.15-.4-2.31-.78-3.47-1.16a.35.35,0,0,1-.28-.4c0-1.74,0-3.47,0-5.21,0-.32.1-.34.37-.26,1.13.34,2.26.68,3.4,1,.26.07.32.2.32.45,0,.89,0,1.79,0,2.68Z"></path><path class="cls-1" d="M31.28,7.14c0-.89,0-1.78,0-2.68,0-.22,0-.33.27-.4Q33.29,3.57,35,3c.25-.08.33,0,.33.24,0,1.76,0,3.52,0,5.29a.31.31,0,0,1-.26.34c-1.17.38-2.34.77-3.51,1.18-.25.09-.29,0-.28-.23C31.29,9,31.28,8.05,31.28,7.14Z"></path><path class="cls-1" d="M9.69,24.33c0,.9,0,1.79,0,2.68,0,.26,0,.32-.31.23-1.15-.39-2.31-.78-3.47-1.15-.2-.07-.28-.15-.28-.37,0-1.76,0-3.53,0-5.29,0-.24.06-.31.31-.23l3.5,1a.32.32,0,0,1,.27.37c0,.91,0,1.82,0,2.72Z"></path><path class="cls-1" d="M5.64,15.7c0-.89,0-1.77,0-2.65a.35.35,0,0,1,.31-.41c1.15-.33,2.3-.67,3.44-1,.24-.07.33-.06.33.23,0,1.73,0,3.45,0,5.17,0,.29-.07.42-.36.51-1.12.36-2.24.74-3.36,1.13-.27.09-.34.05-.34-.25C5.65,17.51,5.64,16.6,5.64,15.7Z"></path><path class="cls-1" d="M23.67,25.37c.25-.92.5-1.84.73-2.77.07-.26.14-.46.48-.46s.44.19.52.47c.25.93.52,1.85.85,2.79.17-.56.33-1.12.49-1.67s.22-.81.34-1.2a.48.48,0,0,1,.65-.38c.18,0,.26.14.21.33-.42,1.51-.84,3-1.25,4.55-.08.29-.28.26-.5.27s-.38,0-.45-.29c-.27-1-.55-1.93-.83-2.91-.17.11-.14.29-.18.44-.22.8-.43,1.6-.63,2.41a.41.41,0,0,1-.48.35c-.27,0-.44,0-.53-.34-.39-1.43-.8-2.86-1.2-4.29-.05-.17-.21-.39.1-.5a.61.61,0,0,1,.82.29L23.49,25c0,.14.08.27.11.4Z"></path><path class="cls-1" d="M68.45,27.3a2.12,2.12,0,0,1-2-1c-.1-.17-.27-.38,0-.55a.55.55,0,0,1,.8.17,1.44,1.44,0,0,0,1.9.4.59.59,0,0,0-.11-1A5.78,5.78,0,0,0,67.85,25a3.13,3.13,0,0,1-.71-.24A1.37,1.37,0,0,1,67,22.5a2.38,2.38,0,0,1,2.83.2.65.65,0,0,1,.16.21c.08.19.33.38,0,.58a.56.56,0,0,1-.79-.11A1.16,1.16,0,0,0,67.81,23a.55.55,0,0,0-.4.57.5.5,0,0,0,.42.51c.4.1.81.17,1.22.26a1.45,1.45,0,0,1,1.32,1.45A1.5,1.5,0,0,1,69,27.23C68.81,27.27,68.59,27.28,68.45,27.3Z"></path><path class="cls-1" d="M40.57,27.29a2.09,2.09,0,0,1-1.9-.94c-.1-.18-.29-.4,0-.59a.55.55,0,0,1,.8.16,1.43,1.43,0,0,0,1.9.41.58.58,0,0,0-.11-1A5.25,5.25,0,0,0,40.09,25a3,3,0,0,1-.72-.24,1.37,1.37,0,0,1-.23-2.23,2.42,2.42,0,0,1,2.76,0,1.14,1.14,0,0,1,.27.31c.09.19.36.4,0,.61a.55.55,0,0,1-.8-.14A1.17,1.17,0,0,0,40,23a.55.55,0,0,0-.37.56.51.51,0,0,0,.43.5c.47.11.94.19,1.4.3a1.37,1.37,0,0,1,1.1,1.07,1.43,1.43,0,0,1-.88,1.69A2.6,2.6,0,0,1,40.57,27.29Z"></path><path class="cls-1" d="M57.26,24.74a3.28,3.28,0,0,1,.38-1.6,1.85,1.85,0,0,1,2-1,1.81,1.81,0,0,1,1.54,1.42c0,.19.14.44-.16.48s-.57.13-.69-.25c0-.07,0-.14-.07-.21a.9.9,0,0,0-.83-.67.87.87,0,0,0-.88.54,2.93,2.93,0,0,0,0,2.55.83.83,0,0,0,.83.49.9.9,0,0,0,.85-.74c.1-.42.36-.46.7-.43s.3.13.27.36a2,2,0,0,1-1.43,1.56,1.86,1.86,0,0,1-2-.82A3.13,3.13,0,0,1,57.26,24.74Z"></path><path class="cls-1" d="M53.26,25.75c.35-1.09.7-2.18,1-3.27.07-.22.17-.38.43-.4.49,0,.59.08.43.55-.46,1.41-.93,2.82-1.38,4.23a.52.52,0,0,1-.59.43c-.34,0-.55-.06-.67-.44-.45-1.41-.94-2.81-1.41-4.21-.06-.18-.26-.41.08-.53a.68.68,0,0,1,.9.3c.25.77.5,1.55.76,2.33.11.34.22.68.34,1Z"></path><path class="cls-1" d="M27.1,2.27l3.49-1.08a.41.41,0,0,1,.29,0l3.63,1.12c-.83.22-1.57.37-2.28.62a4.27,4.27,0,0,1-3,0c-.68-.25-1.4-.39-2.1-.58Z"></path><path class="cls-1" d="M16.85,2.27l3.48-1.08a.36.36,0,0,1,.25,0l3.57,1.09a.49.49,0,0,1-.33.16c-1,.27-2,.53-3.06.81a1,1,0,0,1-.58,0l-3.06-.83A.36.36,0,0,1,16.85,2.27Z"></path><path class="cls-1" d="M8.73,10.93c-1.17.32-2.35.63-3.53.93a.41.41,0,0,1-.22,0c-1.17-.3-2.35-.62-3.52-1l1.17-.37,2.2-.69a.54.54,0,0,1,.33-.05l3.56,1.1Z"></path><path class="cls-1" d="M11.73,10.93c.07-.15.2-.14.3-.17l3-.95a.86.86,0,0,1,.55,0l3.17,1c.09,0,.18,0,.24.14l-3.57.94a.41.41,0,0,1-.22,0Z"></path><path class="cls-1" d="M13.67,19.56l-3.24.87a.73.73,0,0,1-.44,0l-3.2-.86c0-.07-.19,0-.14-.14,1.09-.34,2.18-.67,3.27-1a.83.83,0,0,1,.58,0l3.31,1C13.86,19.57,13.7,19.49,13.67,19.56Z"></path><path class="cls-1" d="M49,22.87a1.45,1.45,0,0,1,1-.68c.21,0,.47-.09.53.24s0,.57-.39.64A1.45,1.45,0,0,0,49,24.56c0,.75,0,1.51,0,2.26,0,.39-.16.46-.5.47s-.45-.14-.44-.47c0-1.34,0-2.67,0-4,0-.28,0-.52.39-.52s.52.13.47.49C48.91,22.8,48.93,22.82,49,22.87Z"></path><path class="cls-1" d="M56.67,24.7c0,.75,0,1.49,0,2.23,0,.39-.21.42-.51.42s-.5-.05-.5-.43c0-1.48,0-3,0-4.45,0-.39.21-.41.5-.42s.51.05.5.43C56.65,23.22,56.67,24,56.67,24.7Z"></path><path class="cls-1" d="M56.16,21.45a.59.59,0,0,1-.58-.61.6.6,0,0,1,.59-.57.61.61,0,0,1,.59.58A.6.6,0,0,1,56.16,21.45Z"></path><path class="cls-2" d="M6.65,19.42l.14.14c-.1,0-.2,0-.24-.09S6.6,19.41,6.65,19.42Z"></path><path class="cls-3" d="M13.67,19.56l.14-.14s.12,0,.1,0S13.77,19.57,13.67,19.56Z"></path><path class="cls-1" d="M48.74,18.08a2.11,2.11,0,0,1-.48-1.47c0-1.09,0-2.17,0-3.25a2.06,2.06,0,0,0-1.48-1.94,4.37,4.37,0,0,0-2.53-.12,2.69,2.69,0,0,0-2.17,1.93c-.12.41,0,.53.38.57s.67.06,1,.11.43-.06.52-.34a1.19,1.19,0,0,1,1.44-.78c.51.12.74.45.76,1.11s0,.53-.5.58a9.56,9.56,0,0,0-2,.34,2.57,2.57,0,0,0-1.94,2.41,2.17,2.17,0,0,0,2.32,2.49,3,3,0,0,0,2.37-1.09,5,5,0,0,0,.74.89.38.38,0,0,0,.57,0c.29-.25.58-.52.89-.76S49,18.35,48.74,18.08ZM46.17,16.4a2.5,2.5,0,0,1-.28,1.12,1.29,1.29,0,0,1-.71.63A.87.87,0,0,1,44,17.51a1.35,1.35,0,0,1,.94-1.72,3.56,3.56,0,0,1,.63-.14C46.17,15.58,46.17,15.58,46.17,16.4Z"></path><path class="cls-1" d="M29.15,18.14a2.3,2.3,0,0,1-.51-1.73c0-.4,0-.8,0-1.21h0c0-.56,0-1.13,0-1.7a2.16,2.16,0,0,0-1.75-2.17,4.54,4.54,0,0,0-2.68.09,2.59,2.59,0,0,0-1.78,1.88c-.09.35,0,.47.35.5s.68,0,1,.11a.44.44,0,0,0,.58-.37,1.17,1.17,0,0,1,1.35-.77c.55.09.8.43.82,1.09,0,.09,0,.18,0,.26,0,.24-.06.33-.3.35a8.94,8.94,0,0,0-2.12.34,2.5,2.5,0,0,0-1.94,2.08,2.21,2.21,0,0,0,2.35,2.83,2.88,2.88,0,0,0,2.09-.89c.17-.16.26-.19.39,0a2.68,2.68,0,0,0,.56.65.38.38,0,0,0,.57,0c.31-.27.62-.55.94-.81S29.34,18.35,29.15,18.14Zm-2.8-.79a1.26,1.26,0,0,1-1.09.86.77.77,0,0,1-.8-.46,1.42,1.42,0,0,1,.11-1.47,2.3,2.3,0,0,1,1.85-.65c.13,0,.11.11.12.19v.46A2.31,2.31,0,0,1,26.35,17.35Z"></path><path class="cls-1" d="M63.22,15.46a5.56,5.56,0,0,0-.33-1.93,3.2,3.2,0,0,0-3-2.28,3.09,3.09,0,0,0-3.09,2.1,5.82,5.82,0,0,0,0,4.34,3,3,0,0,0,2.8,2.08,3.11,3.11,0,0,0,3-1.84A5,5,0,0,0,63.22,15.46Zm-2.35,1.72a1.66,1.66,0,0,1-.32.67.91.91,0,0,1-1.48-.08,3,3,0,0,1-.39-1.48c0-.3,0-.61,0-.91a4.51,4.51,0,0,1,.21-1.86,1,1,0,0,1,.93-.7.93.93,0,0,1,1,.66,3.14,3.14,0,0,1,.19.92A8.94,8.94,0,0,1,60.87,17.18Z"></path><path class="cls-1" d="M36.79,23a1.67,1.67,0,0,0-2.68-.42l-.12,0c0-.59,0-1.16,0-1.72,0-.36-.21-.37-.47-.37s-.48,0-.48.36c0,2,0,3.93,0,5.89,0,.18,0,.34.23.37a.34.34,0,0,0,.41-.25c0-.1.06-.19.11-.33l.14.13a1.72,1.72,0,0,0,2.79-.34A3.36,3.36,0,0,0,36.79,23ZM36,25.72a1,1,0,0,1-.91.77,1.16,1.16,0,0,1-1-.81,2,2,0,0,1-.08-.33c0-.24,0-.48,0-.71a2,2,0,0,1,.25-1.24,1,1,0,0,1,.95-.57,1,1,0,0,1,.8.71A3.2,3.2,0,0,1,36,25.72Z"></path><path class="cls-1" d="M62.88,24.86h2.68c.3,0,.4-.12.38-.41a3.73,3.73,0,0,0-.24-1.1,2.05,2.05,0,0,0-3.41-.56,3.17,3.17,0,0,0-.16,3.7,2.17,2.17,0,0,0,3.61-.32c.06-.15.17-.3,0-.43a.58.58,0,0,0-.85.19,1.1,1.1,0,0,1-1.63.37A1.5,1.5,0,0,1,62.64,25C62.64,24.83,62.76,24.86,62.88,24.86ZM62.69,24a1.2,1.2,0,0,1,1.43-1.14A1.25,1.25,0,0,1,64.93,24c0,.19-.12.16-.23.16h-.9c-.31,0-.61,0-.91,0C62.8,24.16,62.66,24.21,62.69,24Z"></path><path class="cls-1" d="M29.35,24.86H32c.3,0,.41-.12.38-.41a4.54,4.54,0,0,0-.14-.82,1.94,1.94,0,0,0-1.67-1.49,2,2,0,0,0-2.14,1.08,3.1,3.1,0,0,0,0,2.94,2.16,2.16,0,0,0,3.35.6,2.11,2.11,0,0,0,.48-.67c.06-.13.09-.26-.07-.36a.6.6,0,0,0-.86.21,1.1,1.1,0,0,1-1.43.47A1.49,1.49,0,0,1,29.11,25C29.13,24.81,29.25,24.86,29.35,24.86ZM29.18,24a1.31,1.31,0,0,1,1.15-1.12,1.16,1.16,0,0,1,1.06,1.05c0,.21,0,.3-.24.28s-.58,0-.87,0-.6,0-.9,0S29.15,24.13,29.18,24Z"></path><path class="cls-1" d="M44.35,24.85h2c1.14,0,1.21-.1.87-1.2a1.91,1.91,0,0,0-1.75-1.52,2,2,0,0,0-2.14,1.23,3.19,3.19,0,0,0,0,2.67,2.17,2.17,0,0,0,3.42.72,1.93,1.93,0,0,0,.49-.71.22.22,0,0,0-.1-.32.58.58,0,0,0-.85.22,1.07,1.07,0,0,1-1,.56,1.14,1.14,0,0,1-1-.71,2.39,2.39,0,0,1-.16-.69C44.07,24.9,44.15,24.85,44.35,24.85Zm-.17-1a1.26,1.26,0,0,1,1-1A1.12,1.12,0,0,1,46.39,24c0,.16-.11.14-.2.14h-.95c-.29,0-.57,0-.86,0S44.12,24.09,44.18,23.9Z"></path></svg> 