<?xml version="1.0" encoding="UTF-8"?> <svg xmlns="http://www.w3.org/2000/svg" id="Layer_1" data-name="Layer 1" viewBox="0 0 24 28"><defs><style>.cls-1{fill:#fff;}</style></defs><path class="cls-1" d="M12.06,9.43h6.68c.26,0,.31.07.31.32,0,3.25,0,6.51,0,9.76a1.59,1.59,0,0,1-1.62,1.63H6.67A1.58,1.58,0,0,1,5.05,19.5c0-3.24,0-6.49,0-9.73,0-.27,0-.35.34-.35Z"></path><path class="cls-1" d="M4.54,14.21v3.08a1.59,1.59,0,1,1-3.18,0c0-2.05,0-4.11,0-6.16a1.59,1.59,0,1,1,3.18,0Z"></path><path class="cls-1" d="M22.73,14.2c0,1,0,2.07,0,3.11a1.59,1.59,0,1,1-3.18,0V11.06a1.59,1.59,0,1,1,3.18,0C22.74,12.1,22.73,13.15,22.73,14.2Z"></path><path class="cls-1" d="M10.77,24.2v2.19a1.59,1.59,0,1,1-3.18,0V21.93c0-.21,0-.3.27-.3.89,0,1.78,0,2.67,0,.19,0,.25.05.25.25C10.77,22.65,10.77,23.43,10.77,24.2Z"></path><path class="cls-1" d="M16.5,24.2v2.2a1.59,1.59,0,1,1-3.18,0c0-1.5,0-3,0-4.48,0-.21,0-.3.27-.3.89,0,1.78,0,2.67,0,.2,0,.26.05.25.25C16.49,22.66,16.5,23.43,16.5,24.2Z"></path><path class="cls-1" d="M15.52,3.1c-.25-.13-.24-.2-.12-.41.37-.61.72-1.22,1.07-1.84.08-.13.18-.27,0-.37s-.24.06-.31.18c-.33.58-.66,1.16-1,1.73s-.24.43-.7.29a10.24,10.24,0,0,0-3-.25,5.78,5.78,0,0,0-2,.32.27.27,0,0,1-.39-.16C8.7,1.94,8.32,1.3,8,.66,7.87.53,7.8.37,7.61.49s-.06.24,0,.36c.35.62.7,1.23,1.07,1.84.12.2.13.28-.12.41A6.31,6.31,0,0,0,5.05,8.46c0,.27,0,.34.32.34H18.72c.27,0,.35-.06.32-.34A6.31,6.31,0,0,0,15.52,3.1ZM8.86,6.37a.64.64,0,0,1-.63-.65.64.64,0,1,1,1.27,0A.63.63,0,0,1,8.86,6.37Zm6.36,0a.64.64,0,0,1-.63-.62.64.64,0,1,1,1.27,0A.63.63,0,0,1,15.22,6.37Z"></path></svg> 