<?xml version="1.0" encoding="UTF-8"?> <svg xmlns="http://www.w3.org/2000/svg" id="Layer_1" data-name="Layer 1" viewBox="0 0 24 28"><defs><style>.cls-1{fill:#fff;}</style></defs><path class="cls-1" d="M23.5,20.38v.11a8.46,8.46,0,0,1-.42,1.09,17.62,17.62,0,0,1-1.57,2.94A10.84,10.84,0,0,1,20.35,26,7.14,7.14,0,0,1,19,27.14a3.12,3.12,0,0,1-1.66.51,5.37,5.37,0,0,1-2.26-.48,6.7,6.7,0,0,0-1.91-.53,5.54,5.54,0,0,0-2.49.29c-.35.11-.67.26-1,.39a4.72,4.72,0,0,1-1.39.34H7.46a3.4,3.4,0,0,1-2-1.07A17.31,17.31,0,0,1,2.72,23,16.27,16.27,0,0,1,1.32,20,15,15,0,0,1,.6,16.83a14.57,14.57,0,0,1-.08-2A9.75,9.75,0,0,1,1,12a7.65,7.65,0,0,1,.9-1.92A6.6,6.6,0,0,1,3.7,8.14a6.74,6.74,0,0,1,2.14-1,8.13,8.13,0,0,1,1.54-.26,5.57,5.57,0,0,1,1.67.23c.67.17,1.32.44,2,.67a5.45,5.45,0,0,0,1.05.29.65.65,0,0,0,.24,0,7.36,7.36,0,0,0,.92-.25c.77-.24,1.52-.53,2.29-.74a6.65,6.65,0,0,1,1.39-.25,7.49,7.49,0,0,1,3.27.6A6,6,0,0,1,22.3,8.92c.15.16.29.34.43.52s.08.18-.05.25a6.74,6.74,0,0,0-1.19.94,6.17,6.17,0,0,0-.92,1.17A5.62,5.62,0,0,0,19.81,14a5.94,5.94,0,0,0,.2,2.48,6.1,6.1,0,0,0,3.36,3.83A.24.24,0,0,1,23.5,20.38Z"></path><path class="cls-1" d="M12.06,6.37a6,6,0,0,1,2.29-4.59A6.3,6.3,0,0,1,17.44.43h0c.27,0,.27,0,.29.26a5.59,5.59,0,0,1-1.05,3.53A6.46,6.46,0,0,1,13.77,6.6a3.24,3.24,0,0,1-1.6.25c-.08,0-.11,0-.11-.11S12.06,6.49,12.06,6.37Z"></path></svg> 