<?xml version="1.0" encoding="UTF-8"?> <svg xmlns="http://www.w3.org/2000/svg" width="242" height="150" viewBox="0 0 242 150"><g id="Group_4" data-name="Group 4" transform="translate(-851 -654)"><rect id="_700-X-394-7-1" data-name="700-X-394-7-1" width="242" height="150" transform="translate(851 654)" fill="#4724ff"></rect><g id="Layer_2" data-name="Layer 2" transform="translate(877 710)"><g id="Layer_1" data-name="Layer 1" transform="translate(0 0)"><path id="Path_2" data-name="Path 2" d="M74.448,110.034a2.8,2.8,0,0,0,2.634,2.958h.153a2.8,2.8,0,1,0-2.795-2.957Z" transform="translate(-63.067 -90.989)" fill="#fff"></path><path id="Path_3" data-name="Path 3" d="M.963,119.992a.9.9,0,1,0,.624.3.9.9,0,0,0-.624-.3Z" transform="translate(-0.01 -101.656)" fill="#fff"></path><path id="Path_4" data-name="Path 4" d="M66.022,8.952a.906.906,0,1,0-.695.054A.9.9,0,0,0,66.022,8.952Z" transform="translate(-54.819 -6.136)" fill="#fff"></path><path id="Path_5" data-name="Path 5" d="M80.667,36.151a1.4,1.4,0,1,0-1.876-.619A1.4,1.4,0,0,0,80.667,36.151Z" transform="translate(-66.626 -28.388)" fill="#fff"></path><path id="Path_6" data-name="Path 6" d="M26.535,61.37a1.151,1.151,0,1,0-.33-1.592A1.151,1.151,0,0,0,26.535,61.37Z" transform="translate(-22.043 -50.203)" fill="#fff"></path><path id="Path_7" data-name="Path 7" d="M32.36,116.657a1.4,1.4,0,1,0,1.316,1.475A1.4,1.4,0,0,0,32.36,116.657Z" transform="translate(-26.167 -98.83)" fill="#fff"></path><path id="Path_8" data-name="Path 8" d="M26.907,177.433a1.151,1.151,0,1,0,1.546.509A1.151,1.151,0,0,0,26.907,177.433Z" transform="translate(-22.262 -150.216)" fill="#fff"></path><path id="Path_9" data-name="Path 9" d="M61.818,81.039A1.643,1.643,0,1,0,61.108,80,1.644,1.644,0,0,0,61.818,81.039Z" transform="translate(-51.743 -66.098)" fill="#fff"></path><path id="Path_10" data-name="Path 10" d="M175.14,35.845a1.4,1.4,0,1,0-.605-.884,1.4,1.4,0,0,0,.605.884Z" transform="translate(-147.842 -28.191)" fill="#fff"></path><path id="Path_11" data-name="Path 11" d="M195.153,8.6a.9.9,0,1,0-.261-1.251.9.9,0,0,0,.261,1.251Z" transform="translate(-164.989 -5.878)" fill="#fff"></path><path id="Path_12" data-name="Path 12" d="M163.7,107.194a2.8,2.8,0,0,0-.321,5.585h.162a2.8,2.8,0,0,0,2.084-4.659A2.763,2.763,0,0,0,163.7,107.194Z" transform="translate(-136.184 -90.811)" fill="#fff"></path><path id="Path_13" data-name="Path 13" d="M96.267,74.051a2.8,2.8,0,1,0,.12-2.721,2.786,2.786,0,0,0-.12,2.721Z" transform="translate(-81.308 -59.304)" fill="#fff"></path><path id="Path_14" data-name="Path 14" d="M232.155,60.984a1.151,1.151,0,1,0-1.546-.51A1.151,1.151,0,0,0,232.155,60.984Z" transform="translate(-195.269 -49.821)" fill="#fff"></path><path id="Path_15" data-name="Path 15" d="M189.983,77.913a1.643,1.643,0,1,0,1.255-.093,1.644,1.644,0,0,0-1.255.093Z" transform="translate(-160.188 -65.859)" fill="#fff"></path><path id="Path_16" data-name="Path 16" d="M129.2,2.3a1.151,1.151,0,1,0-1.083-1.213A1.151,1.151,0,0,0,129.2,2.3Z" transform="translate(-108.543 -0.002)" fill="#fff"></path><path id="Path_17" data-name="Path 17" d="M126.535,44.222a1.644,1.644,0,1,0-1.549-1.736A1.644,1.644,0,0,0,126.535,44.222Z" transform="translate(-105.887 -34.682)" fill="#fff"></path><path id="Path_18" data-name="Path 18" d="M63.618,155.022a1.644,1.644,0,1,0-2.208-.727A1.644,1.644,0,0,0,63.618,155.022Z" transform="translate(-51.879 -128.698)" fill="#fff"></path><path id="Path_19" data-name="Path 19" d="M139.554,71.134A2.8,2.8,0,1,0,141.9,69.87,2.8,2.8,0,0,0,139.554,71.134Z" transform="translate(-117.844 -59.194)" fill="#fff"></path><path id="Path_20" data-name="Path 20" d="M144.562,146.145a2.8,2.8,0,1,0-2.5,4.055,2.827,2.827,0,0,0,1.259-.306A2.8,2.8,0,0,0,144.562,146.145Z" transform="translate(-117.99 -122.511)" fill="#fff"></path><path id="Path_21" data-name="Path 21" d="M191.77,151.894a1.644,1.644,0,1,0,.472,2.277A1.644,1.644,0,0,0,191.77,151.894Z" transform="translate(-160.312 -128.456)" fill="#fff"></path><path id="Path_22" data-name="Path 22" d="M225.455,117.72a1.4,1.4,0,1,0-1.475,1.316A1.4,1.4,0,0,0,225.455,117.72Z" transform="translate(-188.642 -98.483)" fill="#fff"></path><path id="Path_23" data-name="Path 23" d="M260.946,119.382a.9.9,0,1,0,.851.955A.9.9,0,0,0,260.946,119.382Z" transform="translate(-220.264 -101.139)" fill="#fff"></path><path id="Path_24" data-name="Path 24" d="M232.535,177.046a1.151,1.151,0,1,0,.332,1.594A1.151,1.151,0,0,0,232.535,177.046Z" transform="translate(-195.495 -149.834)" fill="#fff"></path><path id="Path_25" data-name="Path 25" d="M66.642,232.537a.9.9,0,1,0,.26,1.253A.9.9,0,0,0,66.642,232.537Z" transform="translate(-55.274 -196.88)" fill="#fff"></path><path id="Path_26" data-name="Path 26" d="M195.731,232.2a.9.9,0,1,0,.69-.052A.9.9,0,0,0,195.731,232.2Z" transform="translate(-165.403 -196.638)" fill="#fff"></path><path id="Path_27" data-name="Path 27" d="M101.257,149a2.8,2.8,0,1,0-2.341,1.264A2.8,2.8,0,0,0,101.257,149Z" transform="translate(-81.436 -122.564)" fill="#fff"></path><path id="Path_28" data-name="Path 28" d="M81.177,199.826a1.4,1.4,0,1,0,.4,1.935A1.4,1.4,0,0,0,81.177,199.826Z" transform="translate(-66.943 -169.099)" fill="#fff"></path><path id="Path_29" data-name="Path 29" d="M129.088,236.11a1.151,1.151,0,1,0,1.083,1.215A1.151,1.151,0,0,0,129.088,236.11Z" transform="translate(-108.335 -200.03)" fill="#fff"></path><path id="Path_30" data-name="Path 30" d="M126.241,188.723a1.644,1.644,0,1,0,1.542,1.734A1.644,1.644,0,0,0,126.241,188.723Z" transform="translate(-105.475 -159.884)" fill="#fff"></path><path id="Path_31" data-name="Path 31" d="M175.674,199.515a1.4,1.4,0,1,0,1.066-.084,1.4,1.4,0,0,0-1.066.084Z" transform="translate(-148.183 -168.9)" fill="#fff"></path><path id="Path_32" data-name="Path 32" d="M331.714,66.1c2.708,0,4.6,1.488,4.6,4.251h3.547c0-4.847-3.574-7.182-8.2-7.182-5.687,0-8.991,3.088-8.991,9.614,0,6.688,3.3,9.613,8.991,9.613,4.685,0,8.2-2.274,8.2-7.122h-3.412c0,2.708-1.869,4.2-4.737,4.2-3.765,0-5.5-2.086-5.5-6.418v-.541C326.218,68.266,327.977,66.1,331.714,66.1Z" transform="translate(-273.367 -53.518)" fill="#fff"></path><path id="Path_33" data-name="Path 33" d="M456.481,65.33,449.25,83.908h3.576l1.488-4.035h8.5l1.528,4.035h3.737L460.842,65.33ZM455.4,76.943l1.9-5.093c.379-1,1.056-3.168,1.192-3.547h.134c.136.379.813,2.572,1.192,3.547l1.895,5.091Z" transform="translate(-380.606 -55.348)" fill="#fff"></path><path id="Path_34" data-name="Path 34" d="M611.01,70.962c0-3.438-1.977-5.632-6.066-5.632h-9.8V83.908h3.467V76.726h5.767l3.514,7.182h3.791l-3.973-7.718A5.168,5.168,0,0,0,611.01,70.962Zm-6.338,2.844h-6.065V68.282h6.065c1.869,0,2.844,1,2.844,2.68A2.618,2.618,0,0,1,604.672,73.806Z" transform="translate(-504.203 -55.348)" fill="#fff"></path><path id="Path_35" data-name="Path 35" d="M737.423,65.33H730V83.908h7.42c5.6,0,9.015-2.925,9.015-9.289S743.028,65.33,737.423,65.33Zm5.47,9.559c-.028,4.063-1.95,6.066-5.47,6.066H733.47V68.282h3.953c3.514,0,5.47,2,5.47,6.066Z" transform="translate(-618.456 -55.348)" fill="#fff"></path><path id="Path_36" data-name="Path 36" d="M856.894,65.33,849.66,83.908h3.574l1.49-4.035h8.5l1.516,4.035h3.737L861.25,65.33ZM855.81,76.943,857.7,71.85c.379-1,1.056-3.168,1.192-3.547h.138c.134.379.813,2.572,1.192,3.547l1.895,5.091Z" transform="translate(-719.832 -55.348)" fill="#fff"></path><path id="Path_37" data-name="Path 37" d="M1007.925,76.379c0,.351.053,1.3.053,1.462l-.134.053c-.081-.107-.623-1.056-.917-1.488L998.858,65.33H995.55V83.908h3.331V72.778c0-.458-.055-1.354-.055-1.49l.136-.081c.081.108.487.894.917,1.517L1008,83.908h3.249V65.33h-3.33V76.379Z" transform="translate(-843.43 -55.348)" fill="#fff"></path><path id="Path_38" data-name="Path 38" d="M1136.882,63.21c-5.822,0-9.342,3.087-9.342,9.613s3.514,9.613,9.342,9.613,9.37-3.087,9.37-9.613S1142.7,63.21,1136.882,63.21Zm5.822,9.911c0,4.251-2.031,6.39-5.822,6.39-3.763,0-5.794-2.139-5.794-6.39v-.568c0-4.252,2.058-6.418,5.794-6.418,3.765,0,5.822,2.165,5.822,6.418Z" transform="translate(-955.252 -53.552)" fill="#fff"></path></g></g></g></svg> 