<?xml version="1.0" encoding="UTF-8"?> <svg xmlns="http://www.w3.org/2000/svg" xmlns:xlink="http://www.w3.org/1999/xlink" width="242" height="150" viewBox="0 0 242 150"><defs><clipPath id="clip-path"><rect id="Rectangle_4" data-name="Rectangle 4" width="177" height="21" transform="translate(-0.69 -0.046)" fill="#fff"></rect></clipPath></defs><g id="Group_5" data-name="Group 5" transform="translate(-451 -645)"><rect id="solana_blockchain_development_company-1" width="242" height="150" transform="translate(451 645)" fill="#05f"></rect><g id="download_4_" data-name="download (4)" transform="translate(484.69 710.046)" clip-path="url(#clip-path)"><path id="Path_39" data-name="Path 39" d="M173.706,8.538H160.869V4.269h16.16V0h-16.19A4.239,4.239,0,0,0,156.6,4.239V8.568a4.239,4.239,0,0,0,4.239,4.239h12.837v4.269H156.905v4.269h16.8a4.24,4.24,0,0,0,4.239-4.239V12.777a4.24,4.24,0,0,0-4.239-4.239Z" transform="translate(-121.806 -0.012)" fill="#fff"></path><path id="Path_40" data-name="Path 40" d="M285.454,0H272.57a4.236,4.236,0,0,0-4.237,4.239V17.106a4.236,4.236,0,0,0,4.237,4.239h12.884a4.239,4.239,0,0,0,4.239-4.239V4.239A4.239,4.239,0,0,0,285.454,0Zm-.03,17.076H272.617V4.269h12.807Z" transform="translate(-208.696 -0.012)" fill="#fff"></path><path id="Path_41" data-name="Path 41" d="M489.363,0H476.8a4.24,4.24,0,0,0-4.239,4.239V21.345h4.269V14.331h12.5v7.014H493.6V4.239A4.236,4.236,0,0,0,489.363,0Zm-.03,10.062h-12.5V4.269h12.5Z" transform="translate(-367.514 -0.012)" fill="#fff"></path><path id="Path_42" data-name="Path 42" d="M714.142,0H701.581a4.24,4.24,0,0,0-4.248,4.239V21.345H701.6V14.331h12.51v7.014h4.269V4.239A4.239,4.239,0,0,0,714.142,0Zm-.03,10.062h-12.5V4.269h12.5Z" transform="translate(-542.31 -0.012)" fill="#fff"></path><path id="Path_43" data-name="Path 43" d="M601.356,17.076h-1.708l-6.119-15.3A2.825,2.825,0,0,0,590.906,0h-3.8a2.825,2.825,0,0,0-2.825,2.825v18.52h4.269V4.269h1.708l6.116,15.3a2.819,2.819,0,0,0,2.621,1.779h3.8a2.825,2.825,0,0,0,2.825-2.825V0H601.35Z" transform="translate(-454.394 -0.012)" fill="#fff"></path><path id="Path_44" data-name="Path 44" d="M385.682,0h-4.269V17.106a4.24,4.24,0,0,0,4.239,4.239h12.837V17.076H385.682Z" transform="translate(-296.633 -0.012)" fill="#fff"></path><path id="Path_45" data-name="Path 45" d="M6.073,16.276a.83.83,0,0,1,.593-.267H25.3a.409.409,0,0,1,.3.685l-3.949,4.385a.83.83,0,0,1-.593.267H2.409a.409.409,0,0,1-.3-.685ZM25.61,12.641a.409.409,0,0,1-.3.685l-18.635.015a.83.83,0,0,1-.593-.267L2.106,8.7a.409.409,0,0,1,.3-.685L21.038,8a.83.83,0,0,1,.593.267ZM6.073.267A.83.83,0,0,1,6.666,0L25.307.015A.409.409,0,0,1,25.6.7l-3.961,4.37a.83.83,0,0,1-.593.267H2.409a.409.409,0,0,1-.3-.685Z" transform="translate(-1.58 -0.012)" fill="#fff"></path></g></g></svg> 