<?xml version="1.0" encoding="UTF-8"?> <svg xmlns="http://www.w3.org/2000/svg" id="Layer_1" data-name="Layer 1" viewBox="0 0 24 28"><defs><style>.cls-1{fill:#fff;}</style></defs><path class="cls-1" d="M22.94,3V13.37c0,.09,0,.12-.11.12l-4.94,0-4.66,0-2.15,0c-.08,0-.1,0-.1-.09V4.83c0-.07,0-.09.09-.1l1.85-.27,1.71-.25L16.34,4l1.71-.25,1.84-.27L22,3.14,22.82,3s0,0,.05,0Z"></path><path class="cls-1" d="M.89,6.13l1-.14,1.84-.25,2-.27L8,5.16l1.81-.25c.07,0,.08,0,.08.08v8.53c0,.06,0,.08-.08.08l-3.77,0-3.42,0H.91a.18.18,0,0,1,0-.1c0-.43,0-.86,0-1.29V7.85c0-.34,0-.68,0-1a.34.34,0,0,0,0-.1Z"></path><path class="cls-1" d="M.89,14.54H2.37s-.1,0-.15,0H1.09c-.16,0-.16,0-.16.16v7.12c0,.06,0,.13,0,.19h0Z"></path><path class="cls-1" d="M.9,12.26v1.39h0V12.26Z"></path><path class="cls-1" d="M.9,7.85V9.06h0V7.85Z"></path><path class="cls-1" d="M.9,12.26h0V11.11h0Z"></path><path class="cls-1" d="M.9,7.85h0V6.72s0,.07,0,.1Z"></path><path class="cls-1" d="M.89,9.06h0v1.09h0Z"></path><path class="cls-1" d="M.89,10.15h0v1h0Z"></path><path class="cls-1" d="M17,14.67h5.89c.09,0,.1,0,.1.1V25c0,.09,0,.1-.11.09l-2.21-.31-2.28-.33L16,24.15l-2.3-.33-2.3-.32-.39-.05c-.06,0-.07,0-.07-.08a1.76,1.76,0,0,0,0-.23q0-4.2,0-8.38c0-.08,0-.1.1-.1H17Z"></path><path class="cls-1" d="M.9,22.06V14.68c0-.13,0-.13.13-.13H2.37l5.19,0H9.78c.08,0,.11,0,.11.12,0,2.83,0,5.65,0,8.48,0,.09,0,.11-.11.1l-2.62-.37L4.81,22.6l-2.48-.34L1,22.07Z"></path></svg> 